# xmcd
#
# Track frame offsets:
# 150
# 12287
# 25716
# 39742
# 51719
# 64170
# 78518
# 91330
# 105033
# 117144
# 129376
#
# Disc length: 1895 seconds
#
#
# Revision: 0
# Processed by: cddbd v1.5.2PL0 Copyright (c) Steve Scherf et al.
# Submitted via: FreeRIP 2.945 
#
DISCID=8507650b
DTITLE=Muddy Waters - Icon
DYEAR=2011
DGENRE=Blues
TTITLE0=Can't Be Satisfied
TTITLE1=Rollin' and Tumblin', Part One
TTITLE2=Rollin' Stone
TTITLE3=Long Distance Call
TTITLE4=I'm Your Hoochie Coochie Man
TTITLE5=Rock Me
TTITLE6=I Just Want to Make Love to You
TTITLE7=I'm Ready
TTITLE8=Trouble No More
TTITLE9=You Shook Me
TTITLE10=Got My Mojo Working
EXTD=
EXTT0=
EXTT1=
EXTT2=
EXTT3=
EXTT4=
EXTT5=
EXTT6=
EXTT7=
EXTT8=
EXTT9=
EXTT10=
PLAYORDER=
